<?xml version="1.0" encoding="UTF-8"?>
<svg version="1.1" xmlns="http://www.w3.org/2000/svg" width="50" height="50">
<path d="M0 0 C1.12591553 0.00523682 2.25183105 0.01047363 3.41186523 0.01586914 C4.62680664 0.0190918 5.84174805 0.02231445 7.09350586 0.02563477 C8.37290039 0.03401367 9.65229492 0.04239258 10.97045898 0.05102539 C12.2537207 0.05553711 13.53698242 0.06004883 14.85913086 0.06469727 C18.04211921 0.07652994 21.22501661 0.09301471 24.40795898 0.11352539 C24.73795898 1.76352539 25.06795898 3.41352539 25.40795898 5.11352539 C26.39795898 5.44352539 27.38795898 5.77352539 28.40795898 6.11352539 C28.40795898 13.37352539 28.40795898 20.63352539 28.40795898 28.11352539 C27.41795898 28.44352539 26.42795898 28.77352539 25.40795898 29.11352539 C25.41956055 29.75161133 25.43116211 30.38969727 25.44311523 31.04711914 C25.45213867 31.8734082 25.46116211 32.69969727 25.47045898 33.55102539 C25.48206055 34.37473633 25.49366211 35.19844727 25.50561523 36.04711914 C25.40795898 38.11352539 25.40795898 38.11352539 24.40795898 39.11352539 C19.9346394 39.36732773 15.45012438 39.2987526 10.97045898 39.30102539 C9.70395508 39.31327148 8.43745117 39.32551758 7.13256836 39.33813477 C5.92536133 39.34006836 4.7181543 39.34200195 3.47436523 39.34399414 C1.80289429 39.35015747 1.80289429 39.35015747 0.09765625 39.35644531 C-2.59204102 39.11352539 -2.59204102 39.11352539 -4.59204102 37.11352539 C-4.59204102 35.79352539 -4.59204102 34.47352539 -4.59204102 33.11352539 C-5.25204102 33.11352539 -5.91204102 33.11352539 -6.59204102 33.11352539 C-6.59204102 32.12352539 -6.59204102 31.13352539 -6.59204102 30.11352539 C-5.93204102 30.11352539 -5.27204102 30.11352539 -4.59204102 30.11352539 C-4.59204102 28.46352539 -4.59204102 26.81352539 -4.59204102 25.11352539 C-5.25204102 25.11352539 -5.91204102 25.11352539 -6.59204102 25.11352539 C-6.59204102 24.12352539 -6.59204102 23.13352539 -6.59204102 22.11352539 C-5.93204102 22.11352539 -5.27204102 22.11352539 -4.59204102 22.11352539 C-4.59204102 20.46352539 -4.59204102 18.81352539 -4.59204102 17.11352539 C-5.25204102 17.11352539 -5.91204102 17.11352539 -6.59204102 17.11352539 C-6.59204102 16.12352539 -6.59204102 15.13352539 -6.59204102 14.11352539 C-5.93204102 14.11352539 -5.27204102 14.11352539 -4.59204102 14.11352539 C-4.59204102 12.46352539 -4.59204102 10.81352539 -4.59204102 9.11352539 C-5.25204102 9.11352539 -5.91204102 9.11352539 -6.59204102 9.11352539 C-6.59204102 8.12352539 -6.59204102 7.13352539 -6.59204102 6.11352539 C-5.93204102 6.11352539 -5.27204102 6.11352539 -4.59204102 6.11352539 C-4.44766602 5.30915039 -4.30329102 4.50477539 -4.15454102 3.67602539 C-3.38010537 0.14804078 -3.38010537 0.14804078 0 0 Z " fill="#F9C434" transform="translate(13.592041015625,5.886474609375)"/>
<path d="M0 0 C0.99 0.33 1.98 0.66 3 1 C3 6.28 3 11.56 3 17 C2.01 17.33 1.02 17.66 0 18 C0 12.06 0 6.12 0 0 Z " fill="#A8D156" transform="translate(39,17)"/>
<path d="M0 0 C2.64 0 5.28 0 8 0 C8 0.99 8 1.98 8 3 C5.36 3 2.72 3 0 3 C0 2.01 0 1.02 0 0 Z " fill="#CBD9EB" transform="translate(7,36)"/>
<path d="M0 0 C2.64 0 5.28 0 8 0 C8 0.99 8 1.98 8 3 C5.36 3 2.72 3 0 3 C0 2.01 0 1.02 0 0 Z " fill="#CBD9EB" transform="translate(7,28)"/>
<path d="M0 0 C2.64 0 5.28 0 8 0 C8 0.99 8 1.98 8 3 C5.36 3 2.72 3 0 3 C0 2.01 0 1.02 0 0 Z " fill="#CBD9EB" transform="translate(7,20)"/>
<path d="M0 0 C2.64 0 5.28 0 8 0 C8 0.99 8 1.98 8 3 C5.36 3 2.72 3 0 3 C0 2.01 0 1.02 0 0 Z " fill="#CBD9EB" transform="translate(7,12)"/>
<path d="M0 0 C2.475 0.495 2.475 0.495 5 1 C4.67 2.32 4.34 3.64 4 5 C2.68 4.67 1.36 4.34 0 4 C0 2.68 0 1.36 0 0 Z " fill="#D7CBCA" transform="translate(30,17)"/>
<path d="M0 0 C1.32 0 2.64 0 4 0 C3.67 1.65 3.34 3.3 3 5 C1.68 4.67 0.36 4.34 -1 4 C-0.67 2.68 -0.34 1.36 0 0 Z " fill="#D7CCCA" transform="translate(21,17)"/>
<path d="M0 0 C0.99 0.33 1.98 0.66 3 1 C3 2.98 3 4.96 3 7 C2.01 6.67 1.02 6.34 0 6 C0 4.02 0 2.04 0 0 Z " fill="#7D95C2" transform="translate(39,17)"/>
<path d="M0 0 C0.99 0.33 1.98 0.66 3 1 C3 2.98 3 4.96 3 7 C2.01 6.67 1.02 6.34 0 6 C0 4.02 0 2.04 0 0 Z " fill="#FA7369" transform="translate(39,11)"/>
</svg>
